<?xml version="1.0" standalone="no"?>
<!DOCTYPE svg PUBLIC "-//W3C//DTD SVG 20010904//EN"
 "http://www.w3.org/TR/2001/REC-SVG-20010904/DTD/svg10.dtd">
<svg version="1.0" xmlns="http://www.w3.org/2000/svg"
 width="300.000000pt" height="300.000000pt" viewBox="0 0 300.000000 300.000000"
 preserveAspectRatio="xMidYMid meet">
<metadata>
Created by potrace 1.10, written by Peter Selinger 2001-2011
</metadata>
<g transform="translate(0.000000,300.000000) scale(0.100000,-0.100000)"
fill="#000000" stroke="none">
<path d="M1451 2909 c-139 -27 -237 -167 -212 -303 18 -100 67 -161 160 -204
104 -48 235 -16 311 75 62 76 76 203 31 291 -51 101 -178 162 -290 141z m154
-44 c53 -21 85 -53 85 -82 0 -13 4 -22 9 -19 8 6 22 -22 36 -73 4 -13 4 -47 0
-77 -9 -75 -56 -140 -126 -177 -48 -25 -62 -28 -126 -25 -60 3 -78 8 -115 34
-50 35 -61 63 -26 65 13 1 5 5 -17 8 -39 6 -40 7 -54 68 -21 93 -3 162 60 225
75 75 176 95 274 53z"/>
<path d="M586 2615 c-58 -20 -88 -46 -113 -94 -71 -139 -15 -374 124 -517 70
-73 110 -100 278 -194 178 -100 256 -153 347 -237 109 -102 126 -91 108 68
-40 355 -184 700 -359 862 -116 106 -273 152 -385 112z m258 -59 c153 -76 286
-271 380 -557 53 -160 97 -419 75 -443 -12 -14 -40 14 -61 62 -17 39 -38 61
-24 27 6 -17 -9 -21 -19 -5 -8 13 -165 119 -230 154 -27 16 -79 44 -115 64
-167 92 -265 182 -324 301 -47 93 -66 204 -48 289 15 70 35 99 93 130 39 21
53 23 123 19 64 -4 92 -12 150 -41z"/>
<path d="M710 2326 c0 -3 26 -22 58 -43 77 -51 165 -142 213 -224 26 -44 45
-66 54 -63 19 8 -58 131 -127 206 -56 61 -151 128 -180 128 -10 0 -18 -2 -18
-4z"/>
<path d="M690 2292 c0 -25 65 -124 123 -188 54 -60 142 -123 181 -130 l29 -5
-29 24 c-16 12 -52 40 -80 60 -59 42 -125 116 -178 200 -39 62 -46 67 -46 39z"/>
<path d="M2236 2619 c-59 -14 -154 -68 -212 -122 -121 -110 -231 -329 -300
-594 -38 -151 -62 -350 -44 -383 6 -11 13 -20 17 -20 3 0 36 29 73 63 89 84
168 139 325 227 236 132 328 207 396 320 41 70 79 196 79 263 0 72 -30 157
-70 197 -55 55 -158 74 -264 49z m184 -30 c78 -24 120 -107 116 -229 -8 -222
-130 -366 -461 -545 -99 -53 -179 -103 -238 -148 -21 -16 -41 -27 -44 -23 -4
3 -18 -15 -32 -41 -37 -69 -57 -64 -53 12 4 76 20 198 34 250 64 241 145 423
243 548 122 156 283 221 435 176z"/>
<path d="M2234 2311 c-53 -24 -174 -138 -229 -216 -42 -59 -101 -169 -70 -131
8 11 15 23 15 28 0 4 7 8 15 8 8 0 15 -4 15 -10 0 -17 40 -11 88 12 58 30 189
169 225 241 43 84 27 91 -24 12 -62 -96 -142 -181 -213 -227 -33 -21 -61 -36
-63 -34 -8 7 34 80 81 141 50 64 101 109 179 157 68 43 57 54 -19 19z"/>
<path d="M1107 2573 c-16 -15 -5 -52 34 -118 141 -241 221 -475 276 -810 6
-35 13 -51 26 -53 15 -3 17 8 17 130 0 73 -3 231 -7 351 l-6 219 -55 24 c-91
40 -146 88 -206 179 -54 82 -65 93 -79 78z m168 -219 c22 -17 63 -43 92 -58
65 -32 65 -31 61 -286 l-3 -195 -18 60 c-98 323 -86 292 -169 460 -34 71 -42
93 -26 75 13 -14 41 -39 63 -56z"/>
<path d="M1859 2563 c-8 -10 -36 -51 -63 -91 -56 -84 -105 -126 -184 -158
l-57 -23 -3 -350 c-2 -306 0 -351 13 -351 16 0 20 12 35 115 41 265 128 514
262 748 38 67 49 94 41 105 -14 23 -28 25 -44 5z m-63 -170 c-92 -183 -155
-350 -187 -496 -7 -32 -16 -54 -21 -49 -5 5 -7 100 -6 213 l3 204 56 30 c65
35 114 76 155 127 16 21 30 38 32 38 1 0 -13 -30 -32 -67z"/>
<path d="M262 2083 c-7 -3 -19 -17 -27 -32 -12 -25 -12 -31 5 -59 24 -40 66
-43 98 -9 27 29 28 47 1 81 -19 24 -47 31 -77 19z m68 -57 c0 -20 -27 -39 -45
-32 -25 9 -30 37 -10 52 20 15 55 2 55 -20z"/>
<path d="M2667 2072 c-22 -25 -21 -75 1 -95 40 -36 112 -6 112 46 0 53 -79 87
-113 49z m71 -24 c18 -18 15 -36 -7 -48 -27 -14 -51 -2 -51 25 0 32 35 46 58
23z"/>
<path d="M388 1785 c-16 -9 -28 -20 -28 -24 0 -5 24 -31 54 -59 43 -39 82 -60
188 -104 170 -70 187 -76 171 -56 -12 14 -76 48 -158 84 l-40 18 50 6 c45 6
41 7 -32 8 -75 2 -86 5 -128 34 -43 31 -64 62 -50 76 14 14 200 7 265 -11 146
-39 300 -136 421 -265 76 -82 108 -132 52 -81 -19 16 -16 11 9 -19 20 -24 55
-80 78 -125 l42 -82 -72 73 c-65 66 -146 128 -207 161 -45 23 -22 3 37 -33 33
-21 87 -62 120 -93 68 -62 164 -191 129 -172 -17 9 -26 7 -48 -8 -46 -35 -40
-65 29 -137 85 -88 125 -147 149 -219 19 -55 21 -85 21 -319 0 -213 3 -264 15
-288 17 -33 48 -39 81 -16 18 13 19 32 25 293 5 255 7 283 27 334 29 74 71
135 149 221 41 44 62 75 59 85 -3 8 -6 21 -6 29 0 24 -44 38 -71 24 l-23 -13
17 27 c9 14 25 38 34 54 9 15 38 48 64 75 26 26 44 47 40 47 -4 0 -29 -22 -56
-50 -27 -27 -51 -48 -53 -46 -6 7 77 149 106 181 24 26 24 27 3 10 l-24 -20
13 24 c25 49 175 192 250 241 136 87 251 122 398 123 123 0 133 -10 67 -69
l-49 -44 -96 -2 c-80 -1 -86 -2 -40 -7 l55 -6 -84 -38 c-83 -37 -145 -77 -121
-77 16 0 248 94 311 126 49 24 112 89 106 107 -9 30 -52 38 -172 34 -102 -3
-133 -8 -207 -34 -207 -72 -398 -241 -495 -438 -16 -33 -45 -103 -63 -155 -21
-57 -46 -108 -66 -130 -43 -48 -87 -120 -73 -120 12 0 65 52 136 135 36 41 45
46 58 35 8 -7 15 -15 15 -19 0 -4 -26 -33 -58 -66 -83 -87 -154 -197 -169
-265 -12 -54 -20 -222 -18 -377 3 -187 -2 -213 -35 -193 -12 7 -14 47 -13 222
0 117 -3 248 -8 291 -14 118 -61 204 -181 328 -30 31 -45 55 -42 64 12 29 42
14 84 -40 52 -68 117 -128 133 -122 7 2 12 21 13 43 2 61 3 64 24 64 25 0 43
-34 34 -63 -7 -22 -6 -22 15 -3 30 27 27 70 -5 95 -32 25 -52 26 -82 5 -27
-19 -30 -78 -5 -106 9 -10 14 -20 11 -23 -3 -3 -33 32 -69 77 -48 64 -71 104
-95 174 -88 249 -217 409 -426 528 -124 70 -190 88 -338 93 -100 3 -131 0
-152 -12z"/>
<path d="M154 1641 c-72 -44 -114 -138 -94 -212 13 -48 72 -117 117 -136 98
-40 225 19 255 119 25 83 -30 201 -109 234 -48 20 -132 18 -169 -5z m176 -29
c19 -9 37 -18 39 -19 6 -4 -31 -56 -53 -76 -30 -26 -155 -85 -198 -92 l-36 -7
2 49 c3 59 26 104 68 137 53 39 110 42 178 8z m58 -74 c23 -28 24 -85 4 -132
-46 -103 -188 -126 -258 -43 -30 35 -22 48 38 66 56 17 137 63 167 95 28 29
34 31 49 14z"/>
<path d="M2675 1641 c-102 -63 -135 -183 -74 -274 70 -106 214 -118 296 -24
62 71 66 156 11 245 -41 67 -165 95 -233 53z m167 -27 c21 -9 38 -20 38 -23 0
-20 -45 -74 -81 -97 -44 -27 -159 -74 -184 -74 -22 0 -19 77 5 124 43 85 129
112 222 70z m62 -96 c36 -84 -26 -190 -119 -205 -41 -7 -114 18 -140 47 -28
31 -15 51 53 75 68 25 139 68 160 97 19 26 31 22 46 -14z"/>
<path d="M2200 1626 c-103 -38 -123 -46 -118 -51 3 -3 34 7 69 21 35 15 84 33
109 40 25 6 36 12 25 13 -11 0 -49 -10 -85 -23z"/>
<path d="M970 1547 c0 -3 24 -20 53 -38 28 -18 63 -42 77 -53 20 -17 22 -18
10 -2 -8 10 -37 32 -65 50 -71 45 -75 48 -75 43z"/>
<path d="M555 1509 c-89 -26 -49 -100 81 -148 58 -22 146 -37 104 -18 -175 78
-217 106 -193 127 21 18 84 30 167 31 61 1 83 4 66 9 -34 11 -188 10 -225 -1z"/>
<path d="M2230 1511 c-30 -11 -21 -13 86 -16 109 -3 144 -12 144 -36 0 -15
-23 -31 -102 -68 -57 -27 -110 -51 -118 -54 -33 -12 14 -7 73 9 66 17 145 54
171 79 23 24 20 62 -6 76 -28 15 -213 22 -248 10z"/>
<path d="M1419 1467 c-48 -32 -82 -100 -76 -156 16 -147 212 -193 295 -69 31
47 35 116 9 165 -41 79 -155 109 -228 60z m177 -54 c47 -57 41 -123 -17 -179
-24 -23 -40 -29 -73 -29 -55 0 -89 23 -116 80 -26 53 -19 83 29 129 54 52 135
51 177 -1z"/>
<path d="M555 1301 c-120 -35 -215 -91 -215 -128 0 -21 91 -241 104 -252 9 -8
45 6 132 50 150 76 225 93 384 86 84 -3 132 -11 178 -27 65 -23 87 -21 61 5
-30 31 -164 56 -288 54 -102 -1 -128 -5 -216 -34 -55 -18 -124 -47 -153 -64
-59 -34 -87 -39 -96 -15 -15 38 -6 62 34 89 41 28 54 43 23 26 -10 -5 -34 -21
-53 -36 -30 -22 -35 -24 -38 -9 -2 9 -12 41 -22 70 l-19 54 22 24 c26 30 126
72 216 93 126 28 132 31 66 31 -33 0 -87 -7 -120 -17z"/>
<path d="M2045 1305 c-53 -17 -34 -18 35 0 30 7 44 13 30 13 -14 0 -43 -5 -65
-13z"/>
<path d="M2320 1304 c134 -29 157 -36 228 -69 40 -19 75 -41 79 -50 5 -16 -23
-131 -37 -148 -3 -4 -22 5 -41 19 -36 27 -81 53 -64 37 6 -5 26 -21 45 -35 39
-28 48 -61 25 -92 -13 -17 -16 -17 -67 12 -68 39 -145 70 -233 93 -122 32
-333 22 -429 -22 -29 -14 -38 -46 -8 -34 66 26 175 45 262 45 148 0 267 -36
423 -127 47 -27 48 -28 63 -9 7 11 35 73 60 138 46 117 46 119 28 139 -28 31
-145 87 -216 104 -35 8 -90 14 -123 14 l-60 -1 65 -14z"/>
<path d="M1919 1267 c-45 -21 -146 -91 -158 -109 -6 -10 17 3 51 28 35 26 86
57 113 70 28 13 43 23 35 23 -8 0 -27 -6 -41 -12z"/>
<path d="M1135 1233 c6 -5 33 -26 60 -48 41 -32 45 -33 23 -9 -15 16 -42 38
-60 48 -18 10 -28 15 -23 9z"/>
<path d="M2240 1170 c41 -5 88 -13 103 -19 16 -6 34 -11 40 -10 39 2 -81 31
-143 34 l-75 4 75 -9z"/>
<path d="M1980 1150 c-37 -13 -44 -17 -20 -13 50 8 118 31 95 31 -11 1 -45 -8
-75 -18z"/>
<path d="M775 930 c-12 -20 24 -58 137 -146 62 -47 141 -114 176 -147 48 -47
62 -57 62 -42 0 34 -134 159 -258 240 -30 20 -62 53 -62 64 0 29 143 1 238
-46 88 -44 156 -117 213 -229 27 -53 47 -99 45 -101 -9 -9 -176 38 -259 73
-144 60 -327 194 -366 268 -8 14 -21 26 -28 26 -16 0 -98 -45 -125 -68 -23
-19 -14 -35 74 -128 152 -160 346 -270 573 -325 44 -10 97 -19 118 -19 l37 0
0 90 c0 239 -163 434 -405 485 -82 17 -161 19 -170 5z m-48 -148 c127 -128
284 -221 408 -243 65 -11 158 -39 172 -51 9 -7 13 -27 11 -52 l-3 -41 -51 1
c-111 3 -341 100 -486 206 -72 52 -188 172 -188 194 0 14 45 43 67 44 7 0 38
-26 70 -58z"/>
<path d="M2055 924 c-101 -22 -168 -56 -235 -120 -113 -108 -170 -233 -170
-375 l0 -79 39 0 c53 0 212 42 319 85 158 63 338 199 437 330 25 32 26 37 12
53 -9 9 -40 30 -70 47 l-55 29 -72 -77 c-121 -129 -277 -220 -470 -274 -124
-34 -122 -35 -80 50 89 181 181 265 320 296 77 17 150 23 150 13 0 -13 -62
-67 -140 -122 -93 -66 -180 -153 -180 -181 0 -20 9 -14 61 40 34 34 102 93
152 130 167 124 195 172 100 170 -26 0 -79 -7 -118 -15z m328 -96 c23 -13 37
-28 37 -40 0 -13 -145 -154 -200 -194 -64 -47 -190 -114 -270 -143 -82 -30
-201 -61 -233 -61 -28 0 -28 1 -25 52 l3 52 90 23 c50 12 98 23 108 23 29 0
166 67 238 116 37 25 98 76 135 114 38 39 74 70 81 70 7 0 23 -6 36 -12z"/>
<path d="M209 780 c-130 -39 -160 -205 -53 -287 95 -72 236 -14 260 106 14 71
-46 159 -124 181 -42 11 -47 11 -83 0z m107 -41 c34 -17 44 -26 41 -40 -3 -10
1 -20 8 -23 22 -8 28 -62 10 -99 -39 -83 -145 -110 -206 -51 -18 17 -28 36
-25 46 2 11 -1 18 -10 18 -10 0 -14 12 -14 38 1 43 15 73 50 100 46 36 85 39
146 11z"/>
<path d="M2680 768 c-79 -40 -114 -142 -76 -217 24 -45 79 -83 130 -88 119
-14 216 107 171 213 -21 51 -42 73 -90 95 -53 24 -82 24 -135 -3z m138 -29
c33 -17 43 -26 39 -40 -3 -11 1 -22 7 -27 20 -11 26 -64 11 -98 -14 -34 -56
-68 -96 -77 -51 -13 -134 27 -141 68 -2 11 -8 26 -15 32 -27 29 19 125 71 148
45 19 74 18 124 -6z"/>
<path d="M545 318 c-45 -35 -23 -108 33 -108 27 0 62 33 62 58 0 25 -26 59
-50 65 -11 3 -30 -3 -45 -15z m55 -38 c8 -15 6 -21 -9 -29 -23 -13 -45 8 -35
33 8 22 31 20 44 -4z"/>
<path d="M2403 318 c-45 -58 5 -131 67 -98 39 21 43 78 6 102 -18 12 -63 9
-73 -4z m65 -41 c4 -20 -25 -34 -40 -19 -15 15 -1 44 19 40 10 -2 19 -11 21
-21z"/>
</g>
</svg>
